<?xml version="1.0" encoding="UTF-8" standalone="no"?>
<!DOCTYPE svg PUBLIC "-//W3C//DTD SVG 1.1//EN" "http://www.w3.org/Graphics/SVG/1.1/DTD/svg11.dtd">
<!-- Generated by Microsoft Visio, SVG Export plinks-architecture.svg Page-1 -->
<svg xmlns="http://www.w3.org/2000/svg" xmlns:xlink="http://www.w3.org/1999/xlink" xmlns:ev="http://www.w3.org/2001/xml-events"
		xmlns:v="http://schemas.microsoft.com/visio/2003/SVGExtensions/" width="11.6929in" height="8.26772in"
		viewBox="0 0 841.89 595.276" xml:space="preserve" color-interpolation-filters="sRGB" class="st38">
	<v:documentProperties v:langID="8192" v:metric="true" v:viewMarkup="false">
		<v:userDefs>
			<v:ud v:nameU="msvNoAutoConnect" v:val="VT0(1):26"/>
		</v:userDefs>
	</v:documentProperties>

	<style type="text/css">
	<![CDATA[
		.st1 {fill:url(#grad0-6);stroke:none;stroke-linecap:butt;stroke-width:34}
		.st2 {fill:#50e6ff;stroke:none;stroke-linecap:butt;stroke-width:34}
		.st3 {fill:#c3f1ff;stroke:none;stroke-linecap:butt;stroke-width:34}
		.st4 {fill:#9cebff;stroke:none;stroke-linecap:butt;stroke-width:34}
		.st5 {fill:url(#grad0-20);stroke:none;stroke-linecap:butt;stroke-width:34}
		.st6 {fill:url(#grad0-26);stroke:none;stroke-linecap:butt;stroke-width:34}
		.st7 {fill:#1490df;stroke:none;stroke-linecap:butt;stroke-width:34}
		.st8 {fill:#000000;stroke:none;stroke-linecap:butt;stroke-width:12.5072}
		.st9 {fill:url(#grad0-71);stroke:none;stroke-linecap:butt;stroke-width:34}
		.st10 {fill:#b4ec36;stroke:none;stroke-linecap:butt;stroke-width:34}
		.st11 {fill:#ffffff;stroke:none;stroke-linecap:butt;stroke-width:34}
		.st12 {fill:#5ea0ef;stroke:none;stroke-linecap:butt;stroke-width:34}
		.st13 {fill:url(#grad0-83);stroke:none;stroke-linecap:butt;stroke-width:34}
		.st14 {fill:#7a7a7a;stroke:none;stroke-linecap:butt;stroke-width:12.24}
		.st15 {fill:#1490df;stroke:none;stroke-linecap:butt;stroke-width:12.24}
		.st16 {fill:url(#grad0-97);stroke:none;stroke-linecap:butt;stroke-width:12.24}
		.st17 {fill:url(#grad0-101);stroke:none;stroke-linecap:butt;stroke-width:12.24}
		.st18 {fill:#50e6ff;stroke:none;stroke-linecap:butt;stroke-width:12.24}
		.st19 {fill:#57a300;stroke:none;stroke-linecap:butt;stroke-width:12.24}
		.st20 {fill:#3999c6;stroke:none;stroke-linecap:butt;stroke-width:12.24}
		.st21 {fill:#005ba1;stroke:none;stroke-linecap:butt;stroke-width:34}
		.st22 {fill:url(#grad0-124);stroke:none;stroke-linecap:butt;stroke-width:34}
		.st23 {fill:#eaeaea;stroke:none;stroke-linecap:butt;stroke-width:34}
		.st24 {fill:#198ab3;stroke:none;stroke-linecap:butt;stroke-width:34}
		.st25 {fill:none;stroke:#000000;stroke-dasharray:1.75,1.25;stroke-linecap:round;stroke-linejoin:round;stroke-width:0.25}
		.st26 {fill:#949494;stroke:none;stroke-linecap:butt;stroke-width:34}
		.st27 {fill:#a3a3a3;stroke:none;stroke-linecap:butt;stroke-width:34}
		.st28 {fill:#32bedd;stroke:none;stroke-linecap:butt;stroke-width:34}
		.st29 {fill:none;stroke:none;stroke-linecap:round;stroke-linejoin:round;stroke-width:0.75}
		.st30 {fill:#000000;font-family:Cambria;font-size:1.00001em;font-weight:bold}
		.st31 {fill:#000000;font-family:Cambria;font-size:1.00001em}
		.st32 {marker-start:url(#mrkr4-244);stroke:#7f7f7f;stroke-linecap:round;stroke-linejoin:round;stroke-width:0.25}
		.st33 {fill:#7f7f7f;fill-opacity:1;stroke:#7f7f7f;stroke-opacity:1;stroke-width:0.090252707581227}
		.st34 {fill:#ffffff;stroke:none;stroke-linecap:butt;stroke-width:7.2}
		.st35 {fill:#000000;font-family:Cambria;font-size:0.833336em}
		.st36 {stroke:#7f7f7f;stroke-linecap:round;stroke-linejoin:round;stroke-width:0.25}
		.st37 {font-size:1em}
		.st38 {fill:none;fill-rule:evenodd;font-size:12px;overflow:visible;stroke-linecap:square;stroke-miterlimit:3}
	]]>
	</style>

	<defs id="Patterns_And_Gradients">
		<linearGradient id="grad0-6" x1="0" y1="0" x2="1" y2="0" gradientTransform="rotate(-90 0.5 0.5)">
			<stop offset="0" stop-color="#0078d4" stop-opacity="1"/>
			<stop offset="0.82" stop-color="#5ea0ef" stop-opacity="1"/>
		</linearGradient>
		<linearGradient id="grad0-20" x1="0" y1="0" x2="1" y2="0" gradientTransform="rotate(-90 0.5 0.5)">
			<stop offset="0.15" stop-color="#cccccc" stop-opacity="1"/>
			<stop offset="1" stop-color="#707070" stop-opacity="1"/>
		</linearGradient>
		<linearGradient id="grad0-26" x1="0" y1="0" x2="1" y2="0" gradientTransform="rotate(-90 0.5 0.5)">
			<stop offset="0" stop-color="#5e9624" stop-opacity="1"/>
			<stop offset="0.24" stop-color="#6fb02a" stop-opacity="1"/>
			<stop offset="0.5" stop-color="#7cc52f" stop-opacity="1"/>
			<stop offset="0.755" stop-color="#83d232" stop-opacity="1"/>
			<stop offset="1" stop-color="#86d633" stop-opacity="1"/>
		</linearGradient>
		<linearGradient id="grad0-71" x1="0" y1="0" x2="1" y2="0" gradientTransform="rotate(-90 0.5 0.5)">
			<stop offset="0" stop-color="#5e9624" stop-opacity="1"/>
			<stop offset="0.02" stop-color="#5f9724" stop-opacity="1"/>
			<stop offset="1" stop-color="#76bc2d" stop-opacity="1"/>
		</linearGradient>
		<linearGradient id="grad0-83" x1="0" y1="0" x2="1" y2="0" gradientTransform="rotate(-80.016683414876 0.5 0.5)">
			<stop offset="0.26" stop-color="#50e6ff" stop-opacity="1"/>
			<stop offset="0.42" stop-color="#79eaff" stop-opacity="1"/>
			<stop offset="0.58" stop-color="#99edff" stop-opacity="1"/>
			<stop offset="0.735" stop-color="#b0efff" stop-opacity="1"/>
			<stop offset="0.875" stop-color="#bef1ff" stop-opacity="1"/>
			<stop offset="1" stop-color="#c3f1ff" stop-opacity="1"/>
		</linearGradient>
		<linearGradient id="grad0-97" x1="0" y1="0" x2="1" y2="0" gradientTransform="rotate(90 0.5 0.5)">
			<stop offset="0.23" stop-color="#5ea0ef" stop-opacity="1"/>
			<stop offset="0.32" stop-color="#5b9fee" stop-opacity="1"/>
			<stop offset="0.48" stop-color="#509aeb" stop-opacity="1"/>
			<stop offset="0.57" stop-color="#3f92e6" stop-opacity="1"/>
			<stop offset="0.75" stop-color="#2688df" stop-opacity="1"/>
			<stop offset="0.93" stop-color="#127fd9" stop-opacity="1"/>
		</linearGradient>
		<linearGradient id="grad0-101" x1="0" y1="0" x2="1" y2="0" gradientTransform="rotate(90 0.5 0.5)">
			<stop offset="0.02" stop-color="#5ea0ef" stop-opacity="1"/>
			<stop offset="0.14" stop-color="#5b9fee" stop-opacity="1"/>
			<stop offset="0.23" stop-color="#5b9fee" stop-opacity="1"/>
			<stop offset="0.34" stop-color="#509aeb" stop-opacity="1"/>
			<stop offset="0.44" stop-color="#3f92e6" stop-opacity="1"/>
			<stop offset="0.63" stop-color="#2688df" stop-opacity="1"/>
			<stop offset="0.93" stop-color="#127fd9" stop-opacity="1"/>
		</linearGradient>
		<linearGradient id="grad0-124" x1="0" y1="0" x2="1" y2="0" gradientTransform="rotate(0 0.5 0.5)">
			<stop offset="0" stop-color="#005ba1" stop-opacity="1"/>
			<stop offset="0.07" stop-color="#0060a9" stop-opacity="1"/>
			<stop offset="0.36" stop-color="#0071c8" stop-opacity="1"/>
			<stop offset="0.52" stop-color="#0078d4" stop-opacity="1"/>
			<stop offset="0.64" stop-color="#0074cd" stop-opacity="1"/>
			<stop offset="0.81" stop-color="#006abb" stop-opacity="1"/>
			<stop offset="0.99" stop-color="#005ba1" stop-opacity="1"/>
		</linearGradient>
	</defs>
	<defs id="Markers">
		<g id="lend4">
			<path d="M 2 1 L 0 0 L 2 -1 L 2 1 " style="stroke:none"/>
		</g>
		<marker id="mrkr4-244" class="st33" v:arrowType="4" v:arrowSize="2" v:setback="20.72" refX="20.72" orient="auto"
				markerUnits="strokeWidth" overflow="visible">
			<use xlink:href="#lend4" transform="scale(11.08) "/>
		</marker>
	</defs>
	<g v:mID="0" v:index="1" v:groupContext="foregroundPage">
		<title>Page-1</title>
		<v:pageProperties v:drawingScale="0.0393701" v:pageScale="0.0393701" v:drawingUnits="24" v:shadowOffsetX="8.50394"
				v:shadowOffsetY="-8.50394"/>
		<v:layer v:name="Connector" v:index="0"/>
		<g id="group17-1" transform="translate(56.6929,-420.832)" v:mID="17" v:groupContext="group">
			<title>Sheet.17</title>
			<g id="group2-2" v:mID="2" v:groupContext="group">
				<title>Sheet.2</title>
				<g id="shape3-3" v:mID="3" v:groupContext="shape" transform="translate(0,-14.2056)">
					<title>Sheet.3</title>
					<path d="M0 593.43 A1.88981 1.84094 -180 0 0 1.89 595.28 L54.8 595.28 A1.88981 1.84094 -180 0 0 56.69 593.43
								 L56.69 560.3 A1.88981 1.84094 -180 0 0 54.8 558.46 L1.89 558.46 A1.88981 1.84094 -180 0 0 0 560.3
								 L0 593.43 Z" class="st1"/>
				</g>
				<g id="shape4-7" v:mID="4" v:groupContext="shape" transform="translate(28.3465,-21.876)">
					<title>Sheet.4</title>
					<path d="M9.45 579.17 L9.45 589.88 L0 595.28 L0 584.54 L9.45 579.17 Z" class="st2"/>
				</g>
				<g id="shape5-9" v:mID="5" v:groupContext="shape" transform="translate(18.8976,-32.5839)">
					<title>Sheet.5</title>
					<path d="M18.9 589.88 L9.45 595.28 L0 589.88 L9.45 584.51 L18.9 589.88 Z" class="st3"/>
				</g>
				<g id="shape6-11" v:mID="6" v:groupContext="shape" transform="translate(18.8976,-21.876)">
					<title>Sheet.6</title>
					<path d="M9.45 584.57 L9.45 595.28 L0 589.88 L0 579.17 L9.45 584.57 Z" class="st4"/>
				</g>
				<g id="shape7-13" v:mID="7" v:groupContext="shape" transform="translate(18.8976,-21.876)">
					<title>Sheet.7</title>
					<path d="M0 589.88 L9.45 584.54 L9.45 595.28 L0 589.88 Z" class="st3"/>
				</g>
				<g id="shape8-15" v:mID="8" v:groupContext="shape" transform="translate(28.3465,-21.876)">
					<title>Sheet.8</title>
					<path d="M9.45 589.88 L0 584.54 L0 595.28 L9.45 589.88 Z" class="st4"/>
				</g>
				<g id="shape9-17" v:mID="9" v:groupContext="shape" transform="translate(14.1732,0)">
					<title>Sheet.9</title>
					<path d="M25.54 592.21 C19.94 591.35 19.72 587.42 19.72 581.07 L8.6 581.07 C8.6 587.42 8.41 591.35 2.8 592.21
								 A3.14961 3.06817 -180 0 0 0 595.28 L28.35 595.28 A3.14961 3.06817 -180 0 0 25.54 592.21 Z"
							class="st5"/>
				</g>
			</g>
		</g>
		<g id="group18-21" transform="translate(184.252,-326.194)" v:mID="18" v:groupContext="group">
			<title>Sheet.18</title>
			<g id="group11-22" v:mID="11" v:groupContext="group">
				<title>Sheet.11</title>
				<g id="shape12-23" v:mID="12" v:groupContext="shape" transform="translate(14.2109,-14.4228)">
					<title>Sheet.12</title>
					<path d="M29.56 592.66 A3.64766 3.65555 0 1 1 25.91 589.02 A3.64451 3.65239 0 0 1 29.56 592.66 ZM14.23 589.03
								 A3.64766 3.65555 -180 1 0 17.88 592.68 A3.64451 3.65239 -180 0 0 14.23 589.03 ZM2.58 589.03 A3.64766
								 3.65555 -180 1 0 6.23 592.7 A3.64766 3.65555 -180 0 0 2.58 589.05 L2.58 589.03 Z" class="st6"/>
				</g>
				<g id="shape13-27" v:mID="13" v:groupContext="shape" transform="translate(0.0125992,-1.13687E-13)">
					<title>Sheet.13</title>
					<path d="M19.45 592.9 L17.36 595 a0.94499 0.947033 0 0 1 -1.33559 0 L0.55 579.54 A1.88998 1.89407 0 0 1 0.55
								 576.87 L2.64 574.76 L19.45 591.56 a0.94499 0.947033 0 0 1 -1.42109E-14 1.34163 L19.45 592.9 Z"
							class="st2"/>
				</g>
				<g id="shape14-29" v:mID="14" v:groupContext="shape" transform="translate(-2.79776E-13,-13.6775)">
					<title>Sheet.14</title>
					<path d="M17.06 575.22 L19.17 577.33 a0.94499 0.947033 0 0 1 3.55271E-15 1.34163 L2.65 595.28 L0.55 593.18 A1.88998
								 1.89407 0 0 1 0.55 590.5 L15.74 575.24 a0.94499 0.947033 0 0 1 1.33874 0 L17.06 575.22 Z"
							class="st7"/>
				</g>
				<g id="shape15-31" v:mID="15" v:groupContext="shape" transform="translate(36.9341,-0.00631355)">
					<title>Sheet.15</title>
					<path d="M17.09 574.76 L19.18 576.86 A1.88998 1.89407 0 0 1 19.18 579.54 L3.7 595 a0.94499 0.947033 0 0 1 -1.33559
								 0 L0.28 592.9 a0.94499 0.947033 0 0 1 -8.65974E-15 -1.33847 L17.09 574.76 Z" class="st2"/>
				</g>
				<g id="shape16-33" v:mID="16" v:groupContext="shape" transform="translate(37.2365,-13.6869)">
					<title>Sheet.16</title>
					<path d="M18.89 593.18 L16.8 595.28 L0.28 578.67 a0.94499 0.947033 0 0 1 -7.21645E-15 -1.33847 L2.39 575.22 a0.94499
								 0.947033 0 0 1 1.33559 0 L18.91 590.48 A1.88998 1.89407 0 0 1 18.9 593.16 L18.89 593.18 Z"
							class="st7"/>
				</g>
			</g>
		</g>
		<g id="group19-35" transform="translate(476.115,-326.194)" v:mID="19" v:groupContext="group">
			<title>Sheet.19</title>
			<g id="group20-36" v:mID="20" v:groupContext="group">
				<title>Sheet.20</title>
				<g id="shape21-37" v:mID="21" v:groupContext="shape" transform="translate(14.2109,-14.4228)">
					<title>Sheet.21</title>
					<path d="M29.56 592.66 A3.64766 3.65555 0 1 1 25.91 589.02 A3.64451 3.65239 0 0 1 29.56 592.66 ZM14.23 589.03
								 A3.64766 3.65555 -180 1 0 17.88 592.68 A3.64451 3.65239 -180 0 0 14.23 589.03 ZM2.58 589.03 A3.64766
								 3.65555 -180 1 0 6.23 592.7 A3.64766 3.65555 -180 0 0 2.58 589.05 L2.58 589.03 Z" class="st6"/>
				</g>
				<g id="shape22-40" v:mID="22" v:groupContext="shape" transform="translate(0.0125992,-1.13687E-13)">
					<title>Sheet.22</title>
					<path d="M19.45 592.9 L17.36 595 a0.94499 0.947033 0 0 1 -1.33559 0 L0.55 579.54 A1.88998 1.89407 0 0 1 0.55
								 576.87 L2.64 574.76 L19.45 591.56 a0.94499 0.947033 0 0 1 -1.42109E-14 1.34163 L19.45 592.9 Z"
							class="st2"/>
				</g>
				<g id="shape23-42" v:mID="23" v:groupContext="shape" transform="translate(-2.79776E-13,-13.6775)">
					<title>Sheet.23</title>
					<path d="M17.06 575.22 L19.17 577.33 a0.94499 0.947033 0 0 1 3.55271E-15 1.34163 L2.65 595.28 L0.55 593.18 A1.88998
								 1.89407 0 0 1 0.55 590.5 L15.74 575.24 a0.94499 0.947033 0 0 1 1.33874 0 L17.06 575.22 Z"
							class="st7"/>
				</g>
				<g id="shape24-44" v:mID="24" v:groupContext="shape" transform="translate(36.9341,-0.00631355)">
					<title>Sheet.24</title>
					<path d="M17.09 574.76 L19.18 576.86 A1.88998 1.89407 0 0 1 19.18 579.54 L3.7 595 a0.94499 0.947033 0 0 1 -1.33559
								 0 L0.28 592.9 a0.94499 0.947033 0 0 1 -8.65974E-15 -1.33847 L17.09 574.76 Z" class="st2"/>
				</g>
				<g id="shape25-46" v:mID="25" v:groupContext="shape" transform="translate(37.2365,-13.6869)">
					<title>Sheet.25</title>
					<path d="M18.89 593.18 L16.8 595.28 L0.28 578.67 a0.94499 0.947033 0 0 1 -7.21645E-15 -1.33847 L2.39 575.22 a0.94499
								 0.947033 0 0 1 1.33559 0 L18.91 590.48 A1.88998 1.89407 0 0 1 18.9 593.16 L18.89 593.18 Z"
							class="st7"/>
				</g>
			</g>
		</g>
		<g id="group49-48" transform="translate(311.811,-314.856)" v:mID="49" v:groupContext="group">
			<title>Sheet.49</title>
			<g id="group40-49" transform="translate(-1.59872E-14,-11.715)" v:mID="40" v:groupContext="group">
				<title>g12</title>
				<g id="shape41-50" v:mID="41" v:groupContext="shape" transform="translate(14.2109,-14.2632)">
					<title>path2</title>
					<path d="M29.56 592.69 A3.64766 3.61509 0 1 1 25.91 589.09 A3.64451 3.61197 0 0 1 29.56 592.69 ZM14.23 589.1
								 A3.64766 3.61509 -180 1 0 17.88 592.71 A3.64451 3.61197 -180 0 0 14.23 589.1 ZM2.58 589.1 A3.64766
								 3.61509 -180 1 0 6.23 592.73 A3.64766 3.61509 -180 0 0 2.58 589.12 L2.58 589.1 Z" class="st6"/>
				</g>
				<g id="shape42-53" v:mID="42" v:groupContext="shape" transform="translate(0.0125992,-1.13687E-13)">
					<title>path4</title>
					<path d="M19.45 592.93 L17.36 595 a0.94499 0.936553 0 0 1 -1.33559 0 L0.55 579.72 A1.88998 1.87311 0 0 1 0.55
								 577.07 L2.64 574.99 L19.45 591.6 a0.94499 0.936553 0 0 1 -1.42109E-14 1.32678 L19.45 592.93 Z"
							class="st2"/>
				</g>
				<g id="shape43-55" v:mID="43" v:groupContext="shape" transform="translate(-2.79776E-13,-13.5261)">
					<title>path6</title>
					<path d="M17.06 575.45 L19.17 577.53 a0.94499 0.936553 0 0 1 3.55271E-15 1.32678 L2.65 595.28 L0.55 593.2 A1.88998
								 1.87311 0 0 1 0.55 590.55 L15.74 575.46 a0.94499 0.936553 0 0 1 1.33874 0 L17.06 575.45 Z"
							class="st7"/>
				</g>
				<g id="shape44-57" v:mID="44" v:groupContext="shape" transform="translate(36.9341,-0.00624368)">
					<title>path8</title>
					<path d="M17.09 574.99 L19.18 577.06 A1.88998 1.87311 0 0 1 19.18 579.71 L3.7 595 a0.94499 0.936553 0 0 1 -1.33559
								 0 L0.28 592.92 a0.94499 0.936553 0 0 1 -9.32587E-15 -1.32366 L17.09 574.99 Z" class="st2"/>
				</g>
				<g id="shape45-59" v:mID="45" v:groupContext="shape" transform="translate(37.2365,-13.5355)">
					<title>path10</title>
					<path d="M18.89 593.2 L16.8 595.28 L0.28 578.85 a0.94499 0.936553 0 0 1 -1.14353E-14 -1.32366 L2.39 575.45 a0.94499
								 0.936553 0 0 1 1.33559 -1.13687E-13 L18.91 590.54 A1.88998 1.87311 0 0 1 18.9 593.19 L18.89 593.2
								 Z" class="st7"/>
				</g>
			</g>
			<g id="group46-61" transform="translate(22.6778,0)" v:mID="46" v:groupContext="group">
				<title>g18</title>
				<g id="shape47-62" v:mID="47" v:groupContext="shape">
					<title>path4-1</title>
					<path d="M5.61 583.22 L11.36 583.22 C13.45 583.22 14.62 584.15 15.54 586 L5.61 586 C4.05 586 3 587.82 3 589.38
								 C3 590.93 4.18 592.49 5.61 592.49 L15.54 592.49 C14.62 594.35 13.45 595.28 11.36 595.28 L5.62 595.28
								 C2.48 595.28 0 592.35 0 589.25 C0 586.14 2.61 583.22 5.61 583.22 ZM28.2 586 L18.28 586 C19.19 584.15
								 20.37 583.22 22.46 583.22 L28.2 583.22 C31.33 583.22 33.68 586.27 33.68 589.38 C33.68 592.48 31.2
								 595.28 28.2 595.28 L22.46 595.28 C20.37 595.28 19.19 594.35 18.28 592.49 L28.2 592.49 C29.77 592.49
								 30.81 590.67 30.81 589.38 C30.81 587.82 29.9 586 28.2 586 Z" class="st8"/>
				</g>
				<g id="shape48-64" v:mID="48" v:groupContext="shape" transform="translate(7.44143,-4.63607)">
					<title>path6-1</title>
					<path d="M16.58 595.28 L2.48 595.28 C1.7 595.28 0 594.66 0 593.88 C0 593.11 1.7 592.49 2.48 592.49 L16.58 592.49
								 C17.36 592.49 19.58 592.85 19.58 593.63 C19.58 594.66 17.36 595.28 16.58 595.28 Z" class="st8"/>
				</g>
			</g>
		</g>
		<g id="group56-66" transform="translate(476.115,-425.407)" v:mID="56" v:groupContext="group">
			<title>Sheet.56</title>
			<g id="group51-67" v:mID="51" v:groupContext="group">
				<title>Sheet.51</title>
				<g id="shape52-68" v:mID="52" v:groupContext="shape">
					<title>Sheet.52</title>
					<path d="M0.57 565.56 L26.99 539.15 A1.92087 1.92043 0 0 1 29.71 539.15 L56.13 565.56 A1.92087 1.92043 0 0 1
								 56.13 568.28 L29.68 594.72 A1.88938 1.88894 0 0 1 27.01 594.72 L0.56 568.28 A1.92087 1.92043 0 0
								 1 0.57 565.56 Z" class="st9"/>
				</g>
				<g id="shape53-72" v:mID="53" v:groupContext="shape" transform="translate(5.8948,-21.9491)">
					<title>Sheet.53</title>
					<path d="M29.38 573.16 L22.7 566.48 a0.336939 0.336862 -180 0 0 -0.478643 3.41061E-13 L15.53 573.16 a0.340088
								 0.34001 -180 0 0 0.239321 0.579276 L19.7 573.74 a0.340088 0.34001 0 0 1 0.340088 0.34001 L20.04
								 580.4 a0.340088 0.34001 -180 0 0 0.340088 0.34001 L24.53 580.74 a0.340088 0.34001 -180 0 0 0.340088
								 -0.34001 L24.87 574.08 a0.340088 0.34001 0 0 1 0.340088 -0.34001 L29.14 573.74 a0.340088 0.34001
								 -180 0 0 0.245619 -0.576128 ZM6.79 581.36 L0.1 588.04 a0.343237 0.343158 -180 0 0 4.66294E-15 0.481681
								 L6.78 595.2 a0.336939 0.336862 -180 0 0 0.57941 -0.239266 L7.36 591.04 a0.340088 0.34001 0 0 1 0.340088
								 -0.34001 L14.03 590.7 a0.340088 0.34001 -180 0 0 0.340088 -0.34001 L14.37 586.2 a0.340088 0.34001
								 -180 0 0 -0.340088 -0.34001 L7.71 585.86 a0.340088 0.34001 0 0 1 -0.340088 -0.34001 L7.37 581.6
								 a0.340088 0.34001 -180 0 0 -0.57941 -0.239266 ZM38.47 595.2 L45.13 588.52 a0.343237 0.343158 -180
								 0 0 -2.13163E-14 -0.481681 L38.47 581.36 a0.340088 0.34001 -180 0 0 -0.582558 0.239266 L37.88 585.52
								 a0.340088 0.34001 0 0 1 -0.340088 0.34001 L31.22 585.86 a0.340088 0.34001 -180 0 0 -0.340088 0.34001
								 L30.88 590.36 a0.340088 0.34001 -180 0 0 0.340088 0.34001 L37.54 590.7 a0.340088 0.34001 0 0 1 0.340088
								 0.34001 L37.88 594.96 a0.340088 0.34001 -180 0 0 0.582558 0.239266 Z" class="st10"/>
				</g>
				<g id="shape54-74" v:mID="54" v:groupContext="shape" transform="translate(23.0883,-6.72479)">
					<title>Sheet.54</title>
					<path d="M14.06 573.62 A8.77616 8.77415 -180 1 0 2.91 582.03 L2.91 585.01 A5.41937 5.41812 -180 1 0 7.85 585.06
								 L7.85 581.97 A8.74782 8.74582 -180 0 0 14.06 573.62 Z" class="st11"/>
				</g>
				<g id="shape55-76" v:mID="55" v:groupContext="shape" transform="translate(23.2751,-23.2827)">
					<title>Sheet.55</title>
					<ellipse cx="5.09817" cy="590.179" rx="5.09817" ry="5.097" class="st12"/>
				</g>
			</g>
		</g>
		<g id="group62-78" transform="translate(632.021,-425.407)" v:mID="62" v:groupContext="group">
			<title>Sheet.62</title>
			<g id="group58-79" v:mID="58" v:groupContext="group">
				<title>Icon-networking-64</title>
				<g id="shape59-80" v:mID="59" v:groupContext="shape" transform="translate(2.25934,-2.04777)">
					<title>Sheet.59</title>
					<path d="M45.07 595.28 A32.1203 32.2451 0 1 1 5.7 544.31 L6.04 544.08 A32.1086 32.2334 0 0 1 45.07 595.28 Z"
							class="st13"/>
				</g>
				<g id="shape60-84" v:mID="60" v:groupContext="shape">
					<title>Sheet.60</title>
					<path d="M27.64 538.58 A29.0489 29.1618 -180 1 0 56.69 567.74 A29.0866 29.1997 -180 0 0 27.64 538.58 ZM47.1 548.4
								 A27.8401 27.9483 0 0 1 38.98 551.44 A33.3552 33.4848 -180 0 0 34.25 541.2 A27.1979 27.3036 0 0 1
								 47.1 548.4 ZM27.64 540.21 A24.8936 24.9904 0 0 1 31.76 540.55 A28.2556 28.3654 0 0 1 37.54 551.93
								 A57.1156 57.3376 0 0 1 16.95 551.93 A27.8778 27.9862 0 0 1 22.66 540.78 A27.7267 27.8345 0 0 1 27.64
								 540.21 ZM20.09 541.2 A32.9397 33.0677 -180 0 0 15.29 551.36 A21.0784 21.1603 0 0 1 8.11 548.44 A27.7645
								 27.8724 0 0 1 20.09 541.2 ZM7.7 586.71 A19.9074 19.9847 0 0 1 14.42 583.82 A26.7446 26.8486 -180
								 0 0 19.52 594.14 A27.3868 27.4932 0 0 1 7.7 586.71 ZM31.91 595.05 A26.7446 26.8486 0 0 1 27.64 595.28
								 A25.8002 25.9005 0 0 1 22.2 594.71 A22.6649 22.753 0 0 1 15.9 583.33 A55.6424 55.8586 0 0 1 38.11
								 583.33 A22.6649 22.753 0 0 1 31.72 594.71 L31.91 595.05 ZM34.67 594.44 A26.9335 27.0382 -180 0 0
								 39.88 583.82 A25.2336 25.3317 0 0 1 47.44 586.97 A26.9335 27.0382 0 0 1 34.67 594.29 L34.67 594.44
								 ZM40.26 582.23 C40.56 580.87 40.83 579.46 41.02 577.98 L39.28 578.4 C39.09 579.58 38.9 580.75 38.64
								 581.85 A57.5311 57.7547 -180 0 0 15.63 581.85 C15.37 580.83 15.18 579.73 14.99 578.59 A1.0577 1.06181
								 0 0 1 14.99 578.25 L13.25 577.76 A8.91487 8.94952 -180 0 0 13.25 578.82 C13.25 580.03 13.67 581.17
								 13.89 582.27 A22.2872 22.3738 -180 0 0 6.34 585.49 A27.349 27.4553 0 0 1 6.75 549.85 A23.7604 23.8527
								 -180 0 0 14.61 553.11 C14.35 554.02 14.12 555 13.93 555.99 C13.74 556.97 13.93 556.94 13.63 557.39
								 L15.4 556.97 L15.4 556.33 C15.63 555.34 15.86 554.4 16.12 553.49 A56.2468 56.4654 -180 0 0 27.64
								 554.4 A56.6623 56.8825 -180 0 0 38.15 553.41 C38.41 554.43 38.67 555.53 38.9 556.63 L40.64 557.05
								 C40.36 555.69 40.06 554.42 39.73 553.26 A29.2 29.3135 -180 0 0 48.42 549.81 A27.2735 27.3795 0 0
								 1 48.65 585.8 A27.5001 27.607 -180 0 0 40.26 582.12 L40.26 582.23 Z" class="st12"/>
				</g>
				<g id="shape61-86" v:mID="61" v:groupContext="shape" transform="translate(7.54782,-19.3021)">
					<title>Sheet.61</title>
					<path d="M0.04 579.46 A29.9177 30.034 0 0 1 4.42 579.16 A9.21707 9.25289 0 0 1 10.88 581.13 A7.55497 7.58434
								 0 0 1 13.11 586.67 A8.34824 8.38069 0 0 1 10.8 592.89 A9.82146 9.85964 0 0 1 3.78 595.2 A34.6395
								 34.7742 0 0 1 0 595.01 L0.04 579.46 ZM2.12 593.61 A15.1099 15.1687 -180 0 0 4.19 593.61 A6.11953
								 6.14331 -180 0 0 10.95 586.74 A5.66623 5.68825 -180 0 0 4.5 580.6 A11.9746 12.0212 -180 0 0 2.12
								 580.6 L2.12 593.61 ZM15.79 595.05 L15.79 579.08 L18.02 579.08 L23.12 587.05 A46.0098 46.1886 0 0
								 1 25.99 592.24 C25.8 590.12 25.76 588.18 25.76 585.68 L25.76 579.08 L27.65 579.08 L27.65 595.05
								 L25.57 595.05 L20.59 587.05 C19.49 585.26 18.43 583.25 17.6 581.74 L17.6 595.16 L15.79 595.05 ZM31.01
								 592.55 A7.55497 7.58434 -180 0 0 34.79 593.57 C36.91 593.57 38.11 592.47 38.11 590.84 C38.11 589.21
								 37.28 588.49 35.13 587.69 C32.98 586.89 30.9 585.42 30.9 583.14 A4.60853 4.62645 0 0 1 36.07 578.82
								 A7.55497 7.58434 0 0 1 39.59 579.58 L38.98 581.28 A6.1573 6.18123 -180 0 0 35.96 580.52 C33.77 580.52
								 32.94 581.81 32.94 582.91 C32.94 584.01 33.92 585.15 36.11 585.98 C38.3 586.82 40.19 588.34 40.19
								 590.69 C40.19 593.04 38.38 595.28 34.6 595.28 A8.15937 8.19108 0 0 1 30.56 594.25 L31.01 592.55
								 Z" class="st11"/>
				</g>
			</g>
		</g>
		<g id="group73-88" transform="translate(632.021,-326.194)" v:mID="73" v:groupContext="group">
			<title>Sheet.73</title>
			<g id="group64-89" v:mID="64" v:groupContext="group">
				<title>Artboard 1</title>
				<g id="shape65-90" v:mID="65" v:groupContext="shape" transform="translate(25.9891,-25.0122)">
					<title>Sheet.65</title>
					<rect x="0" y="572.464" width="3.53601" height="22.8113" class="st14"/>
				</g>
				<g id="shape66-92" v:mID="66" v:groupContext="shape" transform="translate(22.571,-43.2371)">
					<title>Sheet.66</title>
					<path d="M10.37 589.97 A5.18614 5.31057 0 1 1 0 589.97 A5.18614 5.31057 0 0 1 10.37 589.97 Z" class="st15"/>
				</g>
				<g id="shape67-94" v:mID="67" v:groupContext="shape" transform="translate(14.3953,-11.7358)">
					<title>Sheet.67</title>
					<path d="M12.65 580.79 L7 580.79 A7.07202 7.24168 -180 0 0 5.9 595.18 A7.55527 7.73653 0 0 1 5.97 592.49 A4.46716
								 4.57433 0 0 1 7 583.45 L12.65 583.45 A4.47894 4.5864 0 0 1 12.65 592.62 L11.1 592.62 A3.37099 3.45187
								 -180 0 0 10.77 594.07 A3.2767 3.35531 -180 0 0 10.99 595.28 L12.65 595.28 A7.07202 7.24168 -180
								 0 0 12.65 580.79 Z" class="st16"/>
				</g>
				<g id="shape68-98" v:mID="68" v:groupContext="shape" transform="translate(21.3923,-5.7011)">
					<title>Sheet.68</title>
					<path d="M13.83 580.89 A8.25068 8.44863 0 0 1 13.91 582 A7.37847 7.55549 0 0 1 13.76 583.58 A4.46716 4.57433
								 0 0 1 12.73 592.62 L7.07 592.62 A4.47894 4.5864 0 1 1 7.07 583.45 L8.63 583.45 A3.32385 3.40359
								 -180 0 0 8.96 582 A3.2767 3.35531 -180 0 0 8.73 580.79 L7.07 580.79 A7.07202 7.24168 -180 0 0 7.07
								 595.28 L12.73 595.28 A7.07202 7.24168 -180 0 0 13.83 580.89 Z" class="st17"/>
				</g>
				<g id="shape69-102" v:mID="69" v:groupContext="shape" transform="translate(0,-1.05515)">
					<title>Sheet.69</title>
					<path d="M17.57 593.67 L16.28 595.01 a0.884002 0.90521 0 0 1 -1.24939 0 L0.52 580.19 A1.77979 1.82249 0 0 1 0.52
								 577.62 L1.83 576.29 L17.57 592.39 a0.872215 0.893141 0 0 1 -1.42109E-14 1.27936 Z" class="st18"/>
				</g>
				<g id="shape70-104" v:mID="70" v:groupContext="shape" transform="translate(0,-14.6446)">
					<title>Sheet.70</title>
					<path d="M16.01 576.6 L17.46 578.09 a0.884002 0.90521 0 0 1 7.10543E-15 1.27936 L1.97 595.28 L0.52 593.8 A1.77979
								 1.82249 0 0 1 0.52 591.23 L14.76 576.6 a0.884002 0.90521 0 0 1 1.24939 0 Z" class="st15"/>
				</g>
				<g id="shape71-106" v:mID="71" v:groupContext="shape" transform="translate(38.8442,0)">
					<title>Sheet.71</title>
					<path d="M0.26 593.67 a0.872215 0.893141 0 0 1 -8.77076E-15 -1.27936 L16.02 576.3 L17.33 577.64 A1.77979 1.82249
								 0 0 1 17.33 580.21 L2.81 595.01 a0.872215 0.893141 0 0 1 -1.24939 0 L0.26 593.67 Z" class="st18"/>
				</g>
				<g id="shape72-108" v:mID="72" v:groupContext="shape" transform="translate(38.9707,-13.5825)">
					<title>Sheet.72</title>
					<path d="M2.95 576.6 L17.2 591.23 A1.768 1.81042 0 0 1 17.2 593.79 L15.75 595.28 L0.25 579.37 a0.907575 0.929349
								 0 0 1 -6.66134E-15 -1.29143 L1.7 576.6 a0.884002 0.90521 0 0 1 1.24939 0 Z" class="st15"/>
				</g>
			</g>
		</g>
		<g id="group79-110" transform="translate(633.746,-184.252)" v:mID="79" v:groupContext="group">
			<title>Sheet.79</title>
			<g id="group75-111" v:mID="75" v:groupContext="group">
				<title>g10</title>
				<g id="shape76-112" v:mID="76" v:groupContext="shape" transform="translate(26.6143,-14.8866)">
					<title>path4</title>
					<rect x="0" y="564.821" width="3.45625" height="30.4551" class="st14"/>
				</g>
				<g id="shape77-114" v:mID="77" v:groupContext="shape" transform="translate(22.1212,-9.20471)">
					<title>path6</title>
					<path d="M12.44 589.14 C12.44 592.47 9.6 595.28 6.22 595.28 C2.84 595.28 0 592.47 0 589.14 C0 585.81 2.84 583
								 6.22 583 C9.6 583 12.44 585.81 12.44 589.14 Z" class="st19"/>
				</g>
				<g id="shape78-116" v:mID="78" v:groupContext="shape">
					<title>path8</title>
					<path d="M33.41 549.25 C33.41 551.97 31.09 554.25 28.34 554.25 C25.59 554.25 23.27 551.97 23.27 549.25 C23.27
								 546.54 25.59 544.25 28.34 544.25 C31.09 544.25 33.41 546.54 33.41 549.25 ZM40.47 595.27 A1.58988
								 1.56821 0 0 1 39.33 594.82 A1.70624 1.68298 0 0 1 39.33 592.44 L51.51 580.44 a0.986184 0.972744
								 -180 0 0 0.00115208 -1.38071 L39.55 567.47 A1.48619 1.46593 0 0 1 39 566.39 C38.98 565.93 39.18
								 565.45 39.54 565.09 A1.64172 1.61935 0 0 1 40.87 564.6 C41.3 564.6 41.71 564.77 42.03 565.09 L53.45
								 576.04 L56 578.55 C56.51 579.19 56.69 580.24 56 580.93 L53.24 583.65 L41.81 594.82 A1.67743 1.65457
								 0 0 1 40.64 595.28 L40.65 595.28 L40.47 595.27 ZM16.05 595.27 A1.67052 1.64776 0 0 1 14.88 594.82
								 L3.24 583.75 L0.69 580.92 C0 580.24 0.17 579.21 0.67 578.58 L3.24 576.05 L14.67 565.08 A1.6325 1.61026
								 0 0 1 16 564.6 C16.42 564.6 16.83 564.77 17.15 565.09 C17.52 565.45 17.71 565.93 17.69 566.39 A1.54379
								 1.52275 0 0 1 17.13 567.49 L5.4 579.05 a0.982728 0.969335 -180 0 0 -0.00115208 1.38071 L17.37 592.44
								 A1.71315 1.6898 0 0 1 17.36 594.82 C17.06 595.11 16.66 595.27 16.23 595.28 L16.05 595.27 Z"
							class="st20"/>
				</g>
			</g>
		</g>
		<g id="group90-118" transform="translate(640.42,-77.6903)" v:mID="90" v:groupContext="group">
			<title>Sheet.90</title>
			<g id="shape82-119" v:mID="82" v:groupContext="shape" transform="translate(14.5067,0)">
				<title>path4</title>
				<path d="M28.01 571.86 L28.01 558.83 a0.466883 0.466883 -180 0 0 -0.800371 -0.333488 L13.87 571.83 L0 585.7 L0 595.28
							 L40.29 595.28 A1.86753 1.86753 -180 0 0 42.19 593.37 L42.19 558.83 a0.466883 0.466883 -180 0 0 -0.800371
							 -0.333488 L28.01 571.86 Z" class="st21"/>
			</g>
			<g id="shape83-121" v:mID="83" v:groupContext="shape">
				<title>path6</title>
				<path d="M14.17 548.85 C6.34 548.85 0 546.55 0 543.58 L0 593.37 A1.86753 1.86753 -180 0 0 1.9 595.28 L28.35 595.28
							 L28.35 543.58 C28.35 546.55 22.01 548.85 14.17 548.85 Z" class="st22"/>
			</g>
			<g id="shape84-125" v:mID="84" v:groupContext="shape" transform="translate(41.3858,-7.53682)">
				<title>rect8</title>
				<path d="M0 594.34 a0.933787 0.933787 -180 0 0 0.933766 0.933766 L6.64 595.28 a0.933787 0.933787 -180 0 0 0.933766
							 -0.933766 L7.57 588.64 a0.933787 0.933787 -180 0 0 -0.933766 -0.933766 L0.93 587.71 a0.933787 0.933787
							 -180 0 0 -0.933766 0.933766 L0 594.34 Z" class="st11"/>
			</g>
			<g id="shape85-127" v:mID="85" v:groupContext="shape" transform="translate(28.2464,-7.53682)">
				<title>rect10</title>
				<path d="M0 594.34 a0.933787 0.933787 -180 0 0 0.933766 0.933766 L6.64 595.28 a0.933787 0.933787 -180 0 0 0.933766
							 -0.933766 L7.57 588.64 a0.933787 0.933787 -180 0 0 -0.933766 -0.933766 L0.93 587.71 a0.933787 0.933787
							 -180 0 0 -0.933766 0.933766 L0 594.34 Z" class="st11"/>
			</g>
			<g id="shape86-129" v:mID="86" v:groupContext="shape" transform="translate(15.107,-7.53682)">
				<title>rect12</title>
				<path d="M0 594.34 a0.933787 0.933787 -180 0 0 0.933766 0.933766 L6.64 595.28 a0.933787 0.933787 -180 0 0 0.933766
							 -0.933766 L7.57 588.64 a0.933787 0.933787 -180 0 0 -0.933766 -0.933766 L0.93 587.71 a0.933787 0.933787
							 -180 0 0 -0.933766 0.933766 L0 594.34 Z" class="st11"/>
			</g>
			<g id="shape87-131" v:mID="87" v:groupContext="shape" transform="translate(3.59712E-14,-46.5549)">
				<title>path14</title>
				<path d="M28.35 590.14 C28.35 592.97 22.01 595.28 14.17 595.28 C6.34 595.28 0 593.11 0 590.14 C0 587.17 6.34 585.14
							 14.17 585.14 C22.01 585.14 28.35 587.44 28.35 590.14 Z" class="st23"/>
			</g>
			<g id="shape88-133" v:mID="88" v:groupContext="shape" transform="translate(3.26818,-48.6559)">
				<title>path16</title>
				<path d="M21.74 591.94 C21.74 593.77 16.87 595.28 10.87 595.28 C4.87 595.28 0 593.84 0 591.94 C0 590.04 5.07 588.71
							 10.91 588.71 C16.74 588.71 21.74 590.14 21.74 591.94 Z" class="st2"/>
			</g>
			<g id="shape89-135" v:mID="89" v:groupContext="shape" transform="translate(5.56925,-48.7226)">
				<title>path18</title>
				<path d="M8.6 592.77 A26.9125 26.9125 -180 0 0 0 594.01 A25.4785 25.4785 -180 0 0 8.6 595.28 A25.4785 25.4785 -180
							 0 0 17.21 594.01 A26.9125 26.9125 -180 0 0 8.6 592.77 Z" class="st24"/>
			</g>
		</g>
		<g id="shape94-137" v:mID="94" v:groupContext="shape" transform="translate(28.3465,-311.671)">
			<title>A_Box-9</title>
			<v:userDefs>
				<v:ud v:nameU="visAltText" v:prompt="" v:val="VT4(A_Box-9)"/>
			</v:userDefs>
			<rect x="0" y="381.843" width="226.772" height="213.432" rx="8.50394" ry="8.50394" class="st25"/>
		</g>
		<g id="shape95-139" v:mID="95" v:groupContext="shape" transform="translate(433.596,-311.187)">
			<title>A_Box-9.95</title>
			<v:userDefs>
				<v:ud v:nameU="visAltText" v:prompt="" v:val="VT4(A_Box-9)"/>
			</v:userDefs>
			<rect x="0" y="381.843" width="340.157" height="213.432" rx="8.50394" ry="8.50394" class="st25"/>
		</g>
		<g id="group38-141" transform="translate(219.423,-481.108)" v:mID="38" v:groupContext="group">
			<title>Sheet.38</title>
			<g id="group28-142" v:mID="28" v:groupContext="group">
				<title>Sheet.28</title>
				<g id="shape29-143" v:mID="29" v:groupContext="shape">
					<title>Sheet.29</title>
					<path d="M0 588.77 a0.53358 0.537585 -180 0 0 0.26679 0.470387 L4.14 591.42 L10.67 595.22 a0.566929 0.571184
								 -180 0 0 0.767022 -0.201594 L13.64 591.25 a0.53358 0.537585 -180 0 0 -0.200093 -0.705581 L5.77 586.18
								 a0.566929 0.571184 0 0 1 -0.26679 -0.470387 L5.5 551.04 a0.53358 0.537585 0 0 1 0.26679 -0.470387
								 L13.44 546.2 a0.53358 0.537585 -180 0 0 0.200093 -0.705581 L11.44 541.73 a0.566929 0.571184 -180
								 0 0 -0.767022 -0.268793 L4.27 545.19 L0.27 547.44 a0.53358 0.537585 -180 0 0 -0.26679 0.470387 L0
								 588.77 Z" class="st26"/>
				</g>
				<g id="shape30-145" v:mID="30" v:groupContext="shape" transform="translate(0,-0.121621)">
					<title>Sheet.30</title>
					<path d="M5.47 550.89 L5.67 550.69 L13.34 546.32 a0.466883 0.470387 -180 0 0 0.200093 -0.705581 L11.34 541.85
								 a0.500232 0.503986 -180 0 0 -0.733673 -0.268793 L4.17 545.31 L0.2 547.56 C0.2 547.56 0.03 547.56
								 0 547.76 L3 549.48 L5.47 550.89 ZM13.34 590.6 L5.67 586.24 a0.733673 0.73918 0 0 1 -0.233441 -0.302392
								 L0.03 589.29 L0.2 589.29 L4.04 591.48 L10.7 595.21 a0.500232 0.503986 -180 0 0 0.733673 -0.201594
								 L13.64 591.24 a0.466883 0.470387 -180 0 0 -0.300139 -0.638382 Z" class="st27"/>
				</g>
				<g id="shape31-147" v:mID="31" v:groupContext="shape" transform="translate(43.0152,0)">
					<title>Sheet.31</title>
					<path d="M13.68 588.77 a0.53358 0.537585 0 0 1 -0.26679 0.470387 L9.54 591.42 L3.01 595.22 a0.566929 0.571184
								 0 0 1 -0.767022 -0.201594 L0.04 591.25 a0.53358 0.537585 0 0 1 0.200093 -0.705581 L7.91 586.18 a0.566929
								 0.571184 -180 0 0 0.26679 -0.470387 L8.18 551.04 a0.53358 0.537585 -180 0 0 -0.26679 -0.470387 L0.24
								 546.2 a0.53358 0.537585 0 0 1 -0.200093 -0.705581 L2.24 541.73 a0.566929 0.571184 0 0 1 0.767022
								 -0.268793 L9.41 545.12 L13.41 547.37 a0.53358 0.537585 0 0 1 0.26679 0.470387 L13.68 588.77 Z"
							class="st26"/>
				</g>
				<g id="shape32-149" v:mID="32" v:groupContext="shape" transform="translate(43.0854,-0.121621)">
					<title>Sheet.32</title>
					<path d="M8.14 550.89 L7.94 550.69 L0.27 546.32 a0.466883 0.470387 0 0 1 -0.200093 -0.705581 L2.27 541.85 a0.500232
								 0.503986 0 0 1 0.733673 -0.268793 L9.44 545.24 L13.41 547.5 L13.61 547.7 L10.61 549.41 L8.14 550.89
								 ZM0.27 590.6 L7.94 586.24 a0.733673 0.73918 -180 0 0 0.233441 -0.302392 L13.57 589.29 L9.74 591.48
								 L3.07 595.21 a0.500232 0.503986 0 0 1 -0.733673 -0.201594 L0.13 591.24 a0.466883 0.470387 0 0 1
								 0.133395 -0.638382 Z" class="st27"/>
				</g>
				<g id="shape33-151" v:mID="33" v:groupContext="shape" transform="translate(28.3131,-6.23894)">
					<title>Sheet.33</title>
					<path d="M17.74 564.26 L17.74 584.89 L0 595.28 L0 574.61 L17.74 564.26 Z" class="st28"/>
				</g>
				<g id="shape34-153" v:mID="34" v:groupContext="shape" transform="translate(10.6049,-26.8688)">
					<title>Sheet.34</title>
					<path d="M35.45 584.89 L17.74 595.28 L0 584.89 L17.74 574.51 L35.45 584.89 Z" class="st4"/>
				</g>
				<g id="shape35-155" v:mID="35" v:groupContext="shape" transform="translate(10.6049,-6.23894)">
					<title>Sheet.35</title>
					<path d="M17.71 574.65 L17.71 595.28 L0 584.89 L0 564.26 L17.71 574.65 Z" class="st2"/>
				</g>
				<g id="shape36-157" v:mID="36" v:groupContext="shape" transform="translate(10.6049,-6.23894)">
					<title>Sheet.36</title>
					<path d="M0 584.89 L17.71 574.61 L17.71 595.28 L0 584.89 Z" class="st4"/>
				</g>
				<g id="shape37-159" v:mID="37" v:groupContext="shape" transform="translate(28.3131,-6.23894)">
					<title>Sheet.37</title>
					<path d="M17.74 584.89 L0 574.61 L0 595.28 L17.74 584.89 Z" class="st2"/>
				</g>
			</g>
		</g>
		<g id="group96-161" transform="translate(737.008,-484.724)" v:mID="96" v:groupContext="group">
			<title>Sheet.96</title>
			<g id="group97-162" v:mID="97" v:groupContext="group">
				<title>Sheet.97</title>
				<g id="shape98-163" v:mID="98" v:groupContext="shape">
					<title>Sheet.98</title>
					<path d="M0 588.77 a0.53358 0.537585 -180 0 0 0.26679 0.470387 L4.14 591.42 L10.67 595.22 a0.566929 0.571184
								 -180 0 0 0.767022 -0.201594 L13.64 591.25 a0.53358 0.537585 -180 0 0 -0.200093 -0.705581 L5.77 586.18
								 a0.566929 0.571184 0 0 1 -0.26679 -0.470387 L5.5 551.04 a0.53358 0.537585 0 0 1 0.26679 -0.470387
								 L13.44 546.2 a0.53358 0.537585 -180 0 0 0.200093 -0.705581 L11.44 541.73 a0.566929 0.571184 -180
								 0 0 -0.767022 -0.268793 L4.27 545.19 L0.27 547.44 a0.53358 0.537585 -180 0 0 -0.26679 0.470387 L0
								 588.77 Z" class="st26"/>
				</g>
				<g id="shape99-165" v:mID="99" v:groupContext="shape" transform="translate(0,-0.121621)">
					<title>Sheet.99</title>
					<path d="M5.47 550.89 L5.67 550.69 L13.34 546.32 a0.466883 0.470387 -180 0 0 0.200093 -0.705581 L11.34 541.85
								 a0.500232 0.503986 -180 0 0 -0.733673 -0.268793 L4.17 545.31 L0.2 547.56 C0.2 547.56 0.03 547.56
								 0 547.76 L3 549.48 L5.47 550.89 ZM13.34 590.6 L5.67 586.24 a0.733673 0.73918 0 0 1 -0.233441 -0.302392
								 L0.03 589.29 L0.2 589.29 L4.04 591.48 L10.7 595.21 a0.500232 0.503986 -180 0 0 0.733673 -0.201594
								 L13.64 591.24 a0.466883 0.470387 -180 0 0 -0.300139 -0.638382 Z" class="st27"/>
				</g>
				<g id="shape100-167" v:mID="100" v:groupContext="shape" transform="translate(43.0152,0)">
					<title>Sheet.100</title>
					<path d="M13.68 588.77 a0.53358 0.537585 0 0 1 -0.26679 0.470387 L9.54 591.42 L3.01 595.22 a0.566929 0.571184
								 0 0 1 -0.767022 -0.201594 L0.04 591.25 a0.53358 0.537585 0 0 1 0.200093 -0.705581 L7.91 586.18 a0.566929
								 0.571184 -180 0 0 0.26679 -0.470387 L8.18 551.04 a0.53358 0.537585 -180 0 0 -0.26679 -0.470387 L0.24
								 546.2 a0.53358 0.537585 0 0 1 -0.200093 -0.705581 L2.24 541.73 a0.566929 0.571184 0 0 1 0.767022
								 -0.268793 L9.41 545.12 L13.41 547.37 a0.53358 0.537585 0 0 1 0.26679 0.470387 L13.68 588.77 Z"
							class="st26"/>
				</g>
				<g id="shape101-169" v:mID="101" v:groupContext="shape" transform="translate(43.0854,-0.121621)">
					<title>Sheet.101</title>
					<path d="M8.14 550.89 L7.94 550.69 L0.27 546.32 a0.466883 0.470387 0 0 1 -0.200093 -0.705581 L2.27 541.85 a0.500232
								 0.503986 0 0 1 0.733673 -0.268793 L9.44 545.24 L13.41 547.5 L13.61 547.7 L10.61 549.41 L8.14 550.89
								 ZM0.27 590.6 L7.94 586.24 a0.733673 0.73918 -180 0 0 0.233441 -0.302392 L13.57 589.29 L9.74 591.48
								 L3.07 595.21 a0.500232 0.503986 0 0 1 -0.733673 -0.201594 L0.13 591.24 a0.466883 0.470387 0 0 1
								 0.133395 -0.638382 Z" class="st27"/>
				</g>
				<g id="shape102-171" v:mID="102" v:groupContext="shape" transform="translate(28.3131,-6.23894)">
					<title>Sheet.102</title>
					<path d="M17.74 564.26 L17.74 584.89 L0 595.28 L0 574.61 L17.74 564.26 Z" class="st28"/>
				</g>
				<g id="shape103-173" v:mID="103" v:groupContext="shape" transform="translate(10.6049,-26.8688)">
					<title>Sheet.103</title>
					<path d="M35.45 584.89 L17.74 595.28 L0 584.89 L17.74 574.51 L35.45 584.89 Z" class="st4"/>
				</g>
				<g id="shape104-175" v:mID="104" v:groupContext="shape" transform="translate(10.6049,-6.23894)">
					<title>Sheet.104</title>
					<path d="M17.71 574.65 L17.71 595.28 L0 584.89 L0 564.26 L17.71 574.65 Z" class="st2"/>
				</g>
				<g id="shape105-177" v:mID="105" v:groupContext="shape" transform="translate(10.6049,-6.23894)">
					<title>Sheet.105</title>
					<path d="M0 584.89 L17.71 574.61 L17.71 595.28 L0 584.89 Z" class="st4"/>
				</g>
				<g id="shape106-179" v:mID="106" v:groupContext="shape" transform="translate(28.3131,-6.23894)">
					<title>Sheet.106</title>
					<path d="M17.74 584.89 L0 574.61 L0 595.28 L17.74 584.89 Z" class="st2"/>
				</g>
			</g>
		</g>
		<g id="shape108-181" v:mID="108" v:groupContext="shape" transform="translate(433.596,-42.7297)">
			<title>A_Box-9.108</title>
			<v:userDefs>
				<v:ud v:nameU="visAltText" v:prompt="" v:val="VT4(A_Box-9)"/>
			</v:userDefs>
			<rect x="0" y="381.843" width="340.157" height="213.432" rx="8.50394" ry="8.50394" class="st25"/>
		</g>
		<g id="group109-183" transform="translate(737.008,-216.267)" v:mID="109" v:groupContext="group">
			<title>Sheet.109</title>
			<g id="group110-184" v:mID="110" v:groupContext="group">
				<title>Sheet.110</title>
				<g id="shape111-185" v:mID="111" v:groupContext="shape">
					<title>Sheet.111</title>
					<path d="M0 588.77 a0.53358 0.537585 -180 0 0 0.26679 0.470387 L4.14 591.42 L10.67 595.22 a0.566929 0.571184
								 -180 0 0 0.767022 -0.201594 L13.64 591.25 a0.53358 0.537585 -180 0 0 -0.200093 -0.705581 L5.77 586.18
								 a0.566929 0.571184 0 0 1 -0.26679 -0.470387 L5.5 551.04 a0.53358 0.537585 0 0 1 0.26679 -0.470387
								 L13.44 546.2 a0.53358 0.537585 -180 0 0 0.200093 -0.705581 L11.44 541.73 a0.566929 0.571184 -180
								 0 0 -0.767022 -0.268793 L4.27 545.19 L0.27 547.44 a0.53358 0.537585 -180 0 0 -0.26679 0.470387 L0
								 588.77 Z" class="st26"/>
				</g>
				<g id="shape112-187" v:mID="112" v:groupContext="shape" transform="translate(0,-0.121621)">
					<title>Sheet.112</title>
					<path d="M5.47 550.89 L5.67 550.69 L13.34 546.32 a0.466883 0.470387 -180 0 0 0.200093 -0.705581 L11.34 541.85
								 a0.500232 0.503986 -180 0 0 -0.733673 -0.268793 L4.17 545.31 L0.2 547.56 C0.2 547.56 0.03 547.56
								 0 547.76 L3 549.48 L5.47 550.89 ZM13.34 590.6 L5.67 586.24 a0.733673 0.73918 0 0 1 -0.233441 -0.302392
								 L0.03 589.29 L0.2 589.29 L4.04 591.48 L10.7 595.21 a0.500232 0.503986 -180 0 0 0.733673 -0.201594
								 L13.64 591.24 a0.466883 0.470387 -180 0 0 -0.300139 -0.638382 Z" class="st27"/>
				</g>
				<g id="shape113-189" v:mID="113" v:groupContext="shape" transform="translate(43.0152,0)">
					<title>Sheet.113</title>
					<path d="M13.68 588.77 a0.53358 0.537585 0 0 1 -0.26679 0.470387 L9.54 591.42 L3.01 595.22 a0.566929 0.571184
								 0 0 1 -0.767022 -0.201594 L0.04 591.25 a0.53358 0.537585 0 0 1 0.200093 -0.705581 L7.91 586.18 a0.566929
								 0.571184 -180 0 0 0.26679 -0.470387 L8.18 551.04 a0.53358 0.537585 -180 0 0 -0.26679 -0.470387 L0.24
								 546.2 a0.53358 0.537585 0 0 1 -0.200093 -0.705581 L2.24 541.73 a0.566929 0.571184 0 0 1 0.767022
								 -0.268793 L9.41 545.12 L13.41 547.37 a0.53358 0.537585 0 0 1 0.26679 0.470387 L13.68 588.77 Z"
							class="st26"/>
				</g>
				<g id="shape114-191" v:mID="114" v:groupContext="shape" transform="translate(43.0854,-0.121621)">
					<title>Sheet.114</title>
					<path d="M8.14 550.89 L7.94 550.69 L0.27 546.32 a0.466883 0.470387 0 0 1 -0.200093 -0.705581 L2.27 541.85 a0.500232
								 0.503986 0 0 1 0.733673 -0.268793 L9.44 545.24 L13.41 547.5 L13.61 547.7 L10.61 549.41 L8.14 550.89
								 ZM0.27 590.6 L7.94 586.24 a0.733673 0.73918 -180 0 0 0.233441 -0.302392 L13.57 589.29 L9.74 591.48
								 L3.07 595.21 a0.500232 0.503986 0 0 1 -0.733673 -0.201594 L0.13 591.24 a0.466883 0.470387 0 0 1
								 0.133395 -0.638382 Z" class="st27"/>
				</g>
				<g id="shape115-193" v:mID="115" v:groupContext="shape" transform="translate(28.3131,-6.23894)">
					<title>Sheet.115</title>
					<path d="M17.74 564.26 L17.74 584.89 L0 595.28 L0 574.61 L17.74 564.26 Z" class="st28"/>
				</g>
				<g id="shape116-195" v:mID="116" v:groupContext="shape" transform="translate(10.6049,-26.8688)">
					<title>Sheet.116</title>
					<path d="M35.45 584.89 L17.74 595.28 L0 584.89 L17.74 574.51 L35.45 584.89 Z" class="st4"/>
				</g>
				<g id="shape117-197" v:mID="117" v:groupContext="shape" transform="translate(10.6049,-6.23894)">
					<title>Sheet.117</title>
					<path d="M17.71 574.65 L17.71 595.28 L0 584.89 L0 564.26 L17.71 574.65 Z" class="st2"/>
				</g>
				<g id="shape118-199" v:mID="118" v:groupContext="shape" transform="translate(10.6049,-6.23894)">
					<title>Sheet.118</title>
					<path d="M0 584.89 L17.71 574.61 L17.71 595.28 L0 584.89 Z" class="st4"/>
				</g>
				<g id="shape119-201" v:mID="119" v:groupContext="shape" transform="translate(28.3131,-6.23894)">
					<title>Sheet.119</title>
					<path d="M17.74 584.89 L0 574.61 L0 595.28 L17.74 584.89 Z" class="st2"/>
				</g>
			</g>
		</g>
		<g id="shape121-203" v:mID="121" v:groupContext="shape" transform="translate(28.3465,-524.409)">
			<title>Sheet.121</title>
			<desc>rg-on-prem</desc>
			<v:textBlock v:margins="rect(4,4,4,4)" v:tabSpace="42.5197"/>
			<v:textRect cx="70.8661" cy="581.102" width="141.74" height="28.3465"/>
			<rect x="0" y="566.929" width="141.732" height="28.3465" class="st29"/>
			<text x="4" y="584.7" class="st30" v:langID="1033"><v:paragraph/><v:tabList/>rg-on-prem</text>		</g>
		<g id="shape122-206" v:mID="122" v:groupContext="shape" transform="translate(439.37,-524.409)">
			<title>Sheet.122</title>
			<desc>rg-plink-service</desc>
			<v:textBlock v:margins="rect(4,4,4,4)" v:tabSpace="42.5197"/>
			<v:textRect cx="70.8661" cy="581.102" width="141.74" height="28.3465"/>
			<rect x="0" y="566.929" width="141.732" height="28.3465" class="st29"/>
			<text x="4" y="584.7" class="st30" v:langID="1033"><v:paragraph/><v:tabList/>rg-plink-service</text>		</g>
		<g id="shape123-209" v:mID="123" v:groupContext="shape" transform="translate(439.37,-255.118)">
			<title>Sheet.123</title>
			<desc>rg-plink-endpoint</desc>
			<v:textBlock v:margins="rect(4,4,4,4)" v:tabSpace="42.5197"/>
			<v:textRect cx="70.8661" cy="581.102" width="141.74" height="28.3465"/>
			<rect x="0" y="566.929" width="141.732" height="28.3465" class="st29"/>
			<text x="4" y="584.7" class="st30" v:langID="1033"><v:paragraph/><v:tabList/>rg-plink-endpoint</text>		</g>
		<g id="shape124-212" v:mID="124" v:groupContext="shape" transform="translate(17.5081,-480.222)">
			<title>Sheet.124</title>
			<desc>vm-odata-server</desc>
			<v:textBlock v:margins="rect(4,4,4,4)" v:tabSpace="42.5197"/>
			<v:textRect cx="70.8661" cy="581.102" width="141.74" height="28.3465"/>
			<rect x="0" y="566.929" width="141.732" height="28.3465" class="st29"/>
			<text x="28.05" y="584.7" class="st31" v:langID="1033"><v:paragraph v:horizAlign="1"/><v:tabList/>vm-odata-server</text>		</g>
		<g id="shape125-215" v:mID="125" v:groupContext="shape" transform="translate(141.732,-362.936)">
			<title>Sheet.125</title>
			<desc>vnet-on-prem</desc>
			<v:textBlock v:margins="rect(4,4,4,4)" v:tabSpace="42.5197"/>
			<v:textRect cx="70.8661" cy="581.102" width="141.74" height="28.3465"/>
			<rect x="0" y="566.929" width="141.732" height="28.3465" class="st29"/>
			<text x="35.28" y="584.7" class="st31" v:langID="1033"><v:paragraph v:horizAlign="1"/><v:tabList/>vnet-on-prem</text>		</g>
		<g id="shape126-218" v:mID="126" v:groupContext="shape" transform="translate(433.596,-368.504)">
			<title>Sheet.126</title>
			<desc>vnet-plink-service</desc>
			<v:textBlock v:margins="rect(4,4,4,4)" v:tabSpace="42.5197"/>
			<v:textRect cx="70.8661" cy="581.102" width="141.74" height="28.3465"/>
			<rect x="0" y="566.929" width="141.732" height="28.3465" class="st29"/>
			<text x="24.18" y="584.7" class="st31" v:langID="1033"><v:paragraph v:horizAlign="1"/><v:tabList/>vnet-plink-service</text>		</g>
		<g id="shape127-221" v:mID="127" v:groupContext="shape" transform="translate(433.596,-481.108)">
			<title>Sheet.127</title>
			<desc>lb-odata-service</desc>
			<v:textBlock v:margins="rect(4,4,4,4)" v:tabSpace="42.5197"/>
			<v:textRect cx="70.8661" cy="581.102" width="141.74" height="28.3465"/>
			<rect x="0" y="566.929" width="141.732" height="28.3465" class="st29"/>
			<text x="29.32" y="584.7" class="st31" v:langID="1033"><v:paragraph v:horizAlign="1"/><v:tabList/>lb-odata-service</text>		</g>
		<g id="shape128-224" v:mID="128" v:groupContext="shape" transform="translate(269.291,-361.924)">
			<title>Sheet.128</title>
			<desc>peer-on-prem</desc>
			<v:textBlock v:margins="rect(4,4,4,4)" v:tabSpace="42.5197"/>
			<v:textRect cx="70.8661" cy="581.102" width="141.74" height="28.3465"/>
			<rect x="0" y="566.929" width="141.732" height="28.3465" class="st29"/>
			<text x="34.94" y="584.7" class="st31" v:langID="1033"><v:paragraph v:horizAlign="1"/><v:tabList/>peer-on-prem</text>		</g>
		<g id="shape129-227" v:mID="129" v:groupContext="shape" transform="translate(586.67,-481.89)">
			<title>Sheet.129</title>
			<desc>pdnsz-plink-service</desc>
			<v:textBlock v:margins="rect(4,4,4,4)" v:tabSpace="42.5197"/>
			<v:textRect cx="70.8661" cy="581.102" width="141.74" height="28.3465"/>
			<rect x="0" y="566.929" width="141.732" height="28.3465" class="st29"/>
			<text x="20.19" y="584.7" class="st31" v:langID="1033"><v:paragraph v:horizAlign="1"/><v:tabList/>pdnsz-plink-service</text>		</g>
		<g id="shape130-230" v:mID="130" v:groupContext="shape" transform="translate(589.501,-379.134)">
			<title>Sheet.130</title>
			<desc>pl-odata-service</desc>
			<v:textBlock v:margins="rect(4,4,4,4)" v:tabSpace="42.5197"/>
			<v:textRect cx="70.8661" cy="581.102" width="141.74" height="28.3465"/>
			<rect x="0" y="566.929" width="141.732" height="28.3465" class="st29"/>
			<text x="29.26" y="584.7" class="st31" v:langID="1033"><v:paragraph v:horizAlign="1"/><v:tabList/>pl-odata-service</text>		</g>
		<g id="shape131-233" v:mID="131" v:groupContext="shape" transform="translate(584.504,-46.5692)">
			<title>Sheet.131</title>
			<desc>adf-odata (+managed vnet)</desc>
			<v:textBlock v:margins="rect(4,4,4,4)" v:tabSpace="42.5197"/>
			<v:textRect cx="76.252" cy="581.102" width="152.51" height="28.3465"/>
			<rect x="0" y="566.929" width="152.504" height="28.3465" class="st29"/>
			<text x="6.49" y="584.7" class="st31" v:langID="1033"><v:paragraph v:horizAlign="1"/><v:tabList/>adf-odata (+managed vnet)</text>		</g>
		<g id="shape132-236" v:mID="132" v:groupContext="shape" transform="translate(581.102,-145.276)">
			<title>Sheet.132</title>
			<desc>(managed private endpoint)</desc>
			<v:textBlock v:margins="rect(4,4,4,4)" v:tabSpace="42.5197"/>
			<v:textRect cx="85.0394" cy="581.102" width="170.08" height="28.3465"/>
			<rect x="0" y="566.929" width="170.079" height="28.3465" class="st29"/>
			<text x="12.83" y="584.7" class="st31" v:langID="1033"><v:paragraph v:horizAlign="1"/><v:tabList/>(managed private endpoint)</text>		</g>
		<g id="shape133-239" v:mID="133" v:groupContext="shape" v:layerMember="0" transform="translate(113.386,-446.514)">
			<title>Dynamic connector</title>
			<desc>backend pool through private ip</desc>
			<v:textBlock v:margins="rect(4,4,4,4)" v:tabSpace="42.5197"/>
			<v:textRect cx="181.365" cy="588.189" width="147.25" height="20.0036"/>
			<path d="M5.18 588.32 L5.54 588.32 L362.73 588.06" class="st32"/>
			<rect v:rectContext="textBkgnd" x="112.844" y="582.189" width="137.042" height="12.0001" class="st34"/>
			<text x="112.84" y="591.19" class="st35" v:langID="1033"><v:paragraph v:horizAlign="1"/><v:tabList/>backend pool through private ip</text>		</g>
		<g id="shape134-247" v:mID="134" v:groupContext="shape" v:layerMember="0" transform="translate(240.94,-336.115)">
			<title>Dynamic connector.134</title>
			<path d="M0 588.19 L70.89 588.19" class="st36"/>
		</g>
		<g id="shape136-250" v:mID="136" v:groupContext="shape" v:layerMember="0" transform="translate(368.476,-336.115)">
			<title>Dynamic connector.136</title>
			<path d="M0 588.19 L107.64 588.19" class="st36"/>
		</g>
		<g id="shape137-253" v:mID="137" v:groupContext="shape" v:layerMember="0" transform="translate(522.164,-442.327)">
			<title>Dynamic connector.137</title>
			<path d="M4.35 598.08 L4.65 598.28 L135.85 682.96" class="st32"/>
		</g>
		<g id="shape138-258" v:mID="138" v:groupContext="shape" v:layerMember="0" transform="translate(532.803,-460.498)">
			<title>Dynamic connector.138</title>
			<desc>A record to front end (fqdn)</desc>
			<v:textBlock v:margins="rect(4,4,4,4)" v:tabSpace="42.5197"/>
			<v:textRect cx="47.3712" cy="602.362" width="79.32" height="32.0037"/>
			<path d="M5.18 602.17 L5.54 602.17 L94.74 602.58" class="st32"/>
			<rect v:rectContext="textBkgnd" x="12.8178" y="590.362" width="69.1068" height="23.9999" class="st34"/>
			<text x="23.5" y="599.36" class="st35" v:langID="1033"><v:paragraph v:horizAlign="1"/><v:tabList/>A record to <v:newlineChar/><tspan
						x="12.82" dy="1.2em" class="st37">front end (fqdn)</tspan></text>		</g>
		<g id="shape139-266" v:mID="139" v:groupContext="shape" v:layerMember="0" transform="translate(654.118,-331.895)">
			<title>Dynamic connector.139</title>
			<path d="M6.57 600.46 L6.57 600.82 L7.67 691.9" class="st32"/>
		</g>
	</g>
</svg>
